<mxfile host="Electron" agent="Mozilla/5.0 (Windows NT 10.0; Win64; x64) AppleWebKit/537.36 (KHTML, like Gecko) draw.io/25.0.1 Chrome/128.0.6613.186 Electron/32.2.6 Safari/537.36" version="25.0.1">
  <diagram name="Page-1" id="g2icUiEPScYakUMUk8eU">
    <mxGraphModel dx="1036" dy="606" grid="1" gridSize="10" guides="1" tooltips="1" connect="1" arrows="1" fold="1" page="1" pageScale="1" pageWidth="850" pageHeight="1100" math="0" shadow="0">
      <root>
        <mxCell id="0" />
        <mxCell id="1" parent="0" />
        <mxCell id="HDvP1zGAA3dl8CjZesCf-1" value="Recenzija i komentarisanje knjiga" style="ellipse;whiteSpace=wrap;html=1;fontSize=15;" vertex="1" parent="1">
          <mxGeometry x="30" y="270" width="350" height="80" as="geometry" />
        </mxCell>
        <mxCell id="HDvP1zGAA3dl8CjZesCf-2" value="Recenzija sa ocenom od 1 do 5" style="ellipse;whiteSpace=wrap;html=1;fontSize=15;" vertex="1" parent="1">
          <mxGeometry x="470" y="170" width="320" height="80" as="geometry" />
        </mxCell>
        <mxCell id="HDvP1zGAA3dl8CjZesCf-3" value="Komentarisanje knjige" style="ellipse;whiteSpace=wrap;html=1;fontSize=15;" vertex="1" parent="1">
          <mxGeometry x="470" y="330" width="330" height="80" as="geometry" />
        </mxCell>
        <mxCell id="HDvP1zGAA3dl8CjZesCf-4" value="" style="endArrow=classic;html=1;rounded=0;entryX=-0.001;entryY=0.633;entryDx=0;entryDy=0;entryPerimeter=0;" edge="1" parent="1" source="HDvP1zGAA3dl8CjZesCf-1" target="HDvP1zGAA3dl8CjZesCf-2">
          <mxGeometry width="50" height="50" relative="1" as="geometry">
            <mxPoint x="400" y="340" as="sourcePoint" />
            <mxPoint x="450" y="290" as="targetPoint" />
          </mxGeometry>
        </mxCell>
        <mxCell id="HDvP1zGAA3dl8CjZesCf-5" value="" style="endArrow=classic;html=1;rounded=0;entryX=0.013;entryY=0.413;entryDx=0;entryDy=0;entryPerimeter=0;" edge="1" parent="1" target="HDvP1zGAA3dl8CjZesCf-3">
          <mxGeometry width="50" height="50" relative="1" as="geometry">
            <mxPoint x="360" y="330" as="sourcePoint" />
            <mxPoint x="450" y="290" as="targetPoint" />
          </mxGeometry>
        </mxCell>
      </root>
    </mxGraphModel>
  </diagram>
</mxfile>
